<svg width="9" height="7" viewBox="0 0 9 7" fill="none" xmlns="http://www.w3.org/2000/svg">
  <path d="M0.017449 1.64756C0.017235 1.57613 0.0527092 1.49567 0.106119 1.44193L0.551209 0.99417C0.604619 0.940438 0.684869 0.904484 0.756297 0.904269C0.827725 0.904055 0.908189 0.939529 0.961921 0.992939L4.48135 4.49134L7.97975 0.971912C8.03316 0.91818 8.11341 0.882226 8.18484 0.882012C8.26519 0.881771 8.33673 0.917271 8.39046 0.970681L8.83822 1.41577C8.89195 1.46918 8.92791 1.54943 8.92812 1.62086C8.92834 1.69229 8.89286 1.77275 8.83945 1.82648L4.69122 5.99965C4.63781 6.05338 4.55756 6.08933 4.48614 6.08955C4.41471 6.08976 4.33424 6.05429 4.28051 6.00088L0.10735 1.85265C0.0536187 1.79924 0.017663 1.71899 0.017449 1.64756Z" fill="white"/>
  </svg>
  
